<svg width="16" height="16" viewBox="0 0 16 16" fill="none" xmlns="http://www.w3.org/2000/svg">
<path fill-rule="evenodd" clip-rule="evenodd" d="M0.5 3C0.5 2.17157 1.17157 1.5 2 1.5H14C14.8284 1.5 15.5 2.17157 15.5 3V13C15.5 13.8284 14.8284 14.5 14 14.5H2C1.17157 14.5 0.5 13.8284 0.5 13V3ZM2 2.5C1.72386 2.5 1.5 2.72386 1.5 3V13C1.5 13.2761 1.72386 13.5 2 13.5H6V2.5H2ZM14 13.5H7V2.5H14C14.2761 2.5 14.5 2.72386 14.5 3V13C14.5 13.2761 14.2761 13.5 14 13.5ZM2.5 3.5C2.22386 3.5 2 3.72386 2 4C2 4.27614 2.22386 4.5 2.5 4.5H4.5C4.77614 4.5 5 4.27614 5 4C5 3.72386 4.77614 3.5 4.5 3.5H2.5ZM2 6C2 5.72386 2.22386 5.5 2.5 5.5H4.5C4.77614 5.5 5 5.72386 5 6C5 6.27614 4.77614 6.5 4.5 6.5H2.5C2.22386 6.5 2 6.27614 2 6ZM2.5 7.5C2.22386 7.5 2 7.72386 2 8C2 8.27614 2.22386 8.5 2.5 8.5H4.5C4.77614 8.5 5 8.27614 5 8C5 7.72386 4.77614 7.5 4.5 7.5H2.5Z" fill="black"/>
</svg>
