<svg width="24" height="24" viewBox="0 0 24 24" fill="none" xmlns="http://www.w3.org/2000/svg">
<path d="M2.69769 1.21875C2.69769 0.75276 3.07545 0.375 3.54144 0.375H12.0701C12.5361 0.375 12.9138 0.75276 12.9138 1.21875C12.9138 1.68474 12.5361 2.0625 12.0701 2.0625H10.9378V8.51218C10.3562 8.87275 9.81739 9.2958 9.33076 9.77195C9.27821 9.49398 9.25029 9.18686 9.25029 8.82938V2.0625H6.33447L6.33363 2.28381C6.33139 2.92645 6.3287 3.79253 6.32691 4.68657C6.3233 6.48672 6.32349 8.367 6.33724 8.79736C6.37288 9.91106 5.90762 10.8298 5.55603 11.524L5.51911 11.5969L4.9021 12.7495H7.28825C7.05732 13.2876 6.87581 13.852 6.74944 14.437H3.99866L1.7035 18.724C1.65729 18.8243 1.73157 18.9392 1.84048 18.9392H6.88994C7.05646 19.5275 7.27955 20.0921 7.55297 20.6267H1.84048C0.469648 20.6267 -0.41728 19.1796 0.199728 17.958L0.208781 17.9401L4.02654 10.8091C4.40563 10.0593 4.67128 9.4973 4.6506 8.85131C4.63566 8.38382 4.63585 6.4613 4.63941 4.68318C4.64121 3.78805 4.6439 2.92107 4.64614 2.27793L4.64696 2.0625H3.54144C3.07545 2.0625 2.69769 1.68474 2.69769 1.21875Z" fill="black"/>
<path fill-rule="evenodd" clip-rule="evenodd" d="M20.5957 16.6566V15.3434C20.5957 15.1656 20.5307 15.0117 20.4008 14.8818C20.2708 14.7518 20.1169 14.6869 19.9391 14.6869H17.3129V12.0606C17.3129 11.8828 17.2479 11.7289 17.1179 11.599C16.988 11.469 16.8341 11.404 16.6563 11.404H15.3432C15.1653 11.404 15.0115 11.469 14.8815 11.599C14.7516 11.7289 14.6866 11.8828 14.6866 12.0606V14.6869H12.0603C11.8825 14.6869 11.7286 14.7518 11.5987 14.8818C11.4687 15.0117 11.4038 15.1656 11.4038 15.3434V16.6566C11.4038 16.8344 11.4687 16.9883 11.5987 17.1182C11.7286 17.2482 11.8825 17.3131 12.0603 17.3131H14.6866V19.9394C14.6866 20.1172 14.7516 20.2711 14.8815 20.401C15.0115 20.531 15.1653 20.596 15.3432 20.596H16.6563C16.8341 20.596 16.988 20.531 17.1179 20.401C17.2479 20.2711 17.3129 20.1172 17.3129 19.9394V17.3131H19.9391C20.1169 17.3131 20.2708 17.2482 20.4008 17.1182C20.5307 16.9883 20.5957 16.8344 20.5957 16.6566ZM22.8221 12.0504C23.5265 13.2541 23.8787 14.5706 23.8787 16C23.8787 17.4294 23.5265 18.7477 22.8221 19.9548C22.1176 21.1619 21.1618 22.1177 19.9547 22.8221C18.7476 23.5266 17.4293 23.8788 15.9999 23.8788C14.5705 23.8788 13.2523 23.5266 12.0451 22.8221C10.838 22.1177 9.88224 21.1619 9.1778 19.9548C8.47336 18.7477 8.12114 17.4294 8.12114 16C8.12114 14.5706 8.47336 13.2524 9.1778 12.0452C9.88224 10.8381 10.838 9.88232 12.0451 9.17788C13.2523 8.47343 14.5705 8.12122 15.9999 8.12122C17.4293 8.12122 18.7476 8.47343 19.9547 9.17788C21.1618 9.88232 22.1176 10.8398 22.8221 12.0504Z" fill="black"/>
</svg>
